<?xml version="1.0" encoding="UTF-8" standalone="no"?><!DOCTYPE svg PUBLIC "-//W3C//DTD SVG 1.1//EN" "http://www.w3.org/Graphics/SVG/1.1/DTD/svg11.dtd"><svg width="100%" height="100%" viewBox="0 0 136 133" version="1.1" xmlns="http://www.w3.org/2000/svg" xmlns:xlink="http://www.w3.org/1999/xlink" xml:space="preserve" xmlns:serif="http://www.serif.com/" style="fill-rule:evenodd;clip-rule:evenodd;stroke-linejoin:round;stroke-miterlimit:1.41421;"><path id="github" d="M67.867,0.062c-37.475,0 -67.867,30.388 -67.867,67.88c0,29.983 19.446,55.425 46.417,64.4c3.395,0.621 4.633,-1.475 4.633,-3.271c0,-1.613 -0.058,-5.879 -0.092,-11.546c-18.879,4.104 -22.862,-9.096 -22.862,-9.096c-3.088,-7.842 -7.538,-9.929 -7.538,-9.929c-6.162,-4.212 0.467,-4.125 0.467,-4.125c6.813,0.479 10.396,6.992 10.396,6.992c6.054,10.375 15.887,7.379 19.754,5.641c0.617,-4.387 2.371,-7.379 4.308,-9.075c-15.071,-1.712 -30.916,-7.537 -30.916,-33.545c0,-7.409 2.645,-13.467 6.987,-18.213c-0.7,-1.717 -3.029,-8.617 0.667,-17.963c0,0 5.696,-1.824 18.662,6.959c5.413,-1.504 11.221,-2.259 16.992,-2.283c5.767,0.024 11.571,0.779 16.992,2.283c12.958,-8.783 18.645,-6.959 18.645,-6.959c3.705,9.346 1.375,16.246 0.68,17.963c4.35,4.746 6.975,10.804 6.975,18.213c0,26.075 -15.871,31.812 -30.988,33.491c2.434,2.096 4.604,6.238 4.604,12.571c0,9.075 -0.083,16.396 -0.083,18.621c0,1.812 1.225,3.925 4.667,3.262c26.95,-8.991 46.379,-34.416 46.379,-64.391c0,-37.492 -30.392,-67.88 -67.879,-67.88Z" style="fill:#181717;"/></svg>