<?xml version="1.0" encoding="UTF-8" standalone="no"?><!DOCTYPE svg PUBLIC "-//W3C//DTD SVG 1.1//EN" "http://www.w3.org/Graphics/SVG/1.1/DTD/svg11.dtd"><svg width="100%" height="100%" viewBox="0 0 614 614" version="1.1" xmlns="http://www.w3.org/2000/svg" xmlns:xlink="http://www.w3.org/1999/xlink" xml:space="preserve" xmlns:serif="http://www.serif.com/" style="fill-rule:evenodd;clip-rule:evenodd;stroke-linejoin:round;stroke-miterlimit:1.41421;"><rect id="Artboard2" x="-485" y="-490" width="1920" height="1200" style="fill:none;"/><clipPath id="_clip1"><rect id="Artboard21" serif:id="Artboard2" x="-485" y="-490" width="1920" height="1200"/></clipPath><g clip-path="url(#_clip1)"><g><path d="M613.522,307.232c0,0 -63.472,117.7 -194.191,201.069c-136.768,87.228 -317.777,94.516 -317.777,94.516c0,0 -101.186,-112.73 -101.186,-284.694c0,-3.658 0.038,-7.288 0.111,-10.891c-0.073,-3.603 -0.111,-7.233 -0.111,-10.891c0,-171.964 101.186,-284.694 101.186,-284.694c0,0 181.009,7.288 317.777,94.516c130.642,83.32 194.116,200.929 194.191,201.069Zm-266.442,77.873l0,-155.746l-41.097,0l-40.396,59.776l-40.63,-59.776l-41.096,0l0,155.746l49.736,0l0,-56.04l31.99,46.7l31.756,-46.7l0,56.04l49.737,0Z" style="fill:#165e83;"/></g></g></svg>